<?xml version="1.0" encoding="UTF-8"?>
<svg width="320px" height="60px" viewBox="0 0 320 60" version="1.1" xmlns="http://www.w3.org/2000/svg" xmlns:xlink="http://www.w3.org/1999/xlink">
    <!-- Generator: Sketch 51.2 (57519) - http://www.bohemiancoding.com/sketch -->
    <title>Artboard</title>
    <desc>Created with Sketch.</desc>
    <defs></defs>
    <g id="Artboard" stroke="none" stroke-width="1" fill="none" fill-rule="evenodd">
        <path d="M12.368,17.928 L12.368,26.504 L17.104,26.504 C20.048,26.504 21.84,25.032 21.84,22.216 C21.84,19.4 20.112,17.928 17.104,17.928 L12.368,17.928 Z M2,49.096 L2,13.896 C2,10.568 4.496,8.712 7.184,8.712 L19.408,8.712 C27.28,8.712 32.208,13.576 32.208,20.616 C32.208,25.288 28.944,28.04 26.768,29.32 C32.336,30.408 35.92,34.824 35.92,40.52 C35.92,47.752 31.248,54.28 20.048,54.28 L7.184,54.28 C4.496,54.28 2,52.424 2,49.096 Z M12.368,35.72 L12.368,45.064 L18.896,45.064 C22.352,45.064 25.168,43.848 25.168,40.392 C25.168,36.936 21.968,35.72 18.896,35.72 L12.368,35.72 Z M67.216,40.52 L49.168,40.52 C49.168,42.632 50.768,46.088 57.168,46.088 C62.096,46.088 65.104,42.952 67.408,42.952 C69.648,42.952 71.568,44.68 71.568,47.24 C71.568,52.104 63.44,55.304 55.888,55.304 C45.136,55.304 38.416,47.304 38.416,37.256 C38.416,27.656 45.648,19.208 55.888,19.208 C65.744,19.208 72.08,27.464 72.08,36.168 C72.08,39.688 70.416,40.52 67.216,40.52 Z M49.168,33.672 L62.096,33.672 C62.096,31.432 59.536,27.656 55.632,27.656 C51.728,27.656 49.168,31.432 49.168,33.672 Z M73.616,48.392 C73.616,45.576 75.472,43.592 77.712,43.592 C80.848,43.592 83.024,46.472 87.312,46.472 C89.36,46.472 90.128,45.512 90.128,44.488 C90.128,42.44 87.952,42.248 82.384,39.944 C77.264,37.832 74.512,35.912 74.512,30.536 C74.512,24.84 79.376,19.208 87.376,19.208 C91.408,19.208 98.896,21.128 98.896,26.312 C98.896,28.808 97.104,30.536 94.736,30.536 C92.752,30.536 89.808,28.04 86.736,28.04 C85.392,28.04 84.112,28.68 84.112,30.152 C84.112,34.056 99.728,33.16 99.728,44.104 C99.728,51.144 93.776,55.304 86.928,55.304 C80.656,55.304 73.616,52.808 73.616,48.392 Z M105.168,49.48 L105.168,29.448 L104.016,29.448 C100.816,29.448 98.768,28.04 98.768,24.84 C98.768,21.64 100.816,20.232 104.016,20.232 L105.168,20.232 L105.168,13.704 C105.168,10.824 107.216,8.52 110.16,8.52 C113.104,8.52 115.152,10.824 115.152,13.704 L115.152,20.232 L117.904,20.232 C121.104,20.232 123.152,21.64 123.152,24.84 C123.152,28.04 121.104,29.448 117.904,29.448 L115.152,29.448 L115.152,49.48 C115.152,52.36 113.104,54.664 110.16,54.664 C107.216,54.664 105.168,52.36 105.168,49.48 Z M152.272,35.72 L152.272,49.16 C152.272,52.808 150.096,54.664 147.088,54.664 C144.08,54.664 141.904,52.808 141.904,49.16 L141.904,13.832 C141.904,10.184 144.08,8.328 147.088,8.328 C150.096,8.328 152.272,10.184 152.272,13.832 L152.272,26.12 L171.6,26.12 L171.6,13.832 C171.6,10.184 173.776,8.328 176.784,8.328 C179.792,8.328 181.968,10.184 181.968,13.832 L181.968,49.16 C181.968,52.808 179.792,54.664 176.784,54.664 C173.776,54.664 171.6,52.808 171.6,49.16 L171.6,35.72 L152.272,35.72 Z M202.256,19.208 C212.368,19.208 219.088,27.208 219.088,37.256 C219.088,47.304 212.368,55.304 202.256,55.304 C192.144,55.304 185.424,47.304 185.424,37.256 C185.424,27.208 192.144,19.208 202.256,19.208 Z M202.256,28.808 C197.84,28.808 195.408,32.648 195.408,37.256 C195.408,41.864 197.84,45.704 202.256,45.704 C206.672,45.704 209.104,41.864 209.104,37.256 C209.104,32.648 206.672,28.808 202.256,28.808 Z M224.912,49.48 L224.912,29.448 L223.76,29.448 C220.56,29.448 218.512,28.04 218.512,24.84 C218.512,21.64 220.56,20.232 223.76,20.232 L224.912,20.232 L224.912,13.704 C224.912,10.824 226.96,8.52 229.904,8.52 C232.848,8.52 234.896,10.824 234.896,13.704 L234.896,20.232 L237.648,20.232 C240.848,20.232 242.896,21.64 242.896,24.84 C242.896,28.04 240.848,29.448 237.648,29.448 L234.896,29.448 L234.896,49.48 C234.896,52.36 232.848,54.664 229.904,54.664 C226.96,54.664 224.912,52.36 224.912,49.48 Z M271.12,40.52 L253.072,40.52 C253.072,42.632 254.672,46.088 261.072,46.088 C266,46.088 269.008,42.952 271.312,42.952 C273.552,42.952 275.472,44.68 275.472,47.24 C275.472,52.104 267.344,55.304 259.792,55.304 C249.04,55.304 242.32,47.304 242.32,37.256 C242.32,27.656 249.552,19.208 259.792,19.208 C269.648,19.208 275.984,27.464 275.984,36.168 C275.984,39.688 274.32,40.52 271.12,40.52 Z M253.072,33.672 L266,33.672 C266,31.432 263.44,27.656 259.536,27.656 C255.632,27.656 253.072,31.432 253.072,33.672 Z M279.056,49.48 L279.056,10.184 C279.056,7.304 281.104,5 284.048,5 C286.992,5 289.04,7.304 289.04,10.184 L289.04,49.48 C289.04,52.36 286.992,54.664 284.048,54.664 C281.104,54.664 279.056,52.36 279.056,49.48 Z M291.728,48.392 C291.728,45.576 293.584,43.592 295.824,43.592 C298.96,43.592 301.136,46.472 305.424,46.472 C307.472,46.472 308.24,45.512 308.24,44.488 C308.24,42.44 306.064,42.248 300.496,39.944 C295.376,37.832 292.624,35.912 292.624,30.536 C292.624,24.84 297.488,19.208 305.488,19.208 C309.52,19.208 317.008,21.128 317.008,26.312 C317.008,28.808 315.216,30.536 312.848,30.536 C310.864,30.536 307.92,28.04 304.848,28.04 C303.504,28.04 302.224,28.68 302.224,30.152 C302.224,34.056 317.84,33.16 317.84,44.104 C317.84,51.144 311.888,55.304 305.04,55.304 C298.768,55.304 291.728,52.808 291.728,48.392 Z" id="Best-Hotels" fill="#FFFFFF"></path>
    </g>
</svg>